<svg xmlns="http://www.w3.org/2000/svg" viewBox="0 0 128 128" width="128" height="128">
  <!-- Background circle -->
  <circle cx="64" cy="64" r="60" fill="#1e3a8a" stroke="#3b82f6" stroke-width="2"/>
  
  <!-- Samurai mask base -->
  <path d="M30 45 C30 35, 35 30, 45 30 L83 30 C93 30, 98 35, 98 45 L98 85 C98 95, 93 100, 83 100 L45 100 C35 100, 30 95, 30 85 Z" fill="#2d3748" stroke="#4a5568" stroke-width="1"/>
  
  <!-- Eye holes -->
  <ellipse cx="48" cy="55" rx="8" ry="12" fill="#1a202c"/>
  <ellipse cx="80" cy="55" rx="8" ry="12" fill="#1a202c"/>
  
  <!-- Inner eye glow -->
  <ellipse cx="48" cy="55" rx="4" ry="6" fill="#fbbf24" opacity="0.8"/>
  <ellipse cx="80" cy="55" rx="4" ry="6" fill="#fbbf24" opacity="0.8"/>
  
  <!-- Nose/mouth guard -->
  <path d="M55 70 L64 75 L73 70 L73 85 C73 90, 68 92, 64 92 C60 92, 55 90, 55 85 Z" fill="#374151" stroke="#4a5568" stroke-width="1"/>
  
  <!-- Breathing holes -->
  <circle cx="60" cy="80" r="1.5" fill="#1a202c"/>
  <circle cx="68" cy="80" r="1.5" fill="#1a202c"/>
  
  <!-- Decorative elements - side panels -->
  <path d="M25 60 L35 55 L35 75 L25 80 Z" fill="#374151" opacity="0.7"/>
  <path d="M103 60 L93 55 L93 75 L103 80 Z" fill="#374151" opacity="0.7"/>
  
  <!-- Top ornament -->
  <path d="M58 25 L64 20 L70 25 L67 32 L61 32 Z" fill="#fbbf24" stroke="#f59e0b" stroke-width="1"/>
  
  <!-- Side horn decorations -->
  <path d="M20 50 L30 45 L25 55 Z" fill="#4a5568"/>
  <path d="M108 50 L98 45 L103 55 Z" fill="#4a5568"/>
  
  <!-- Clean Architecture layers representation (subtle) -->
  <rect x="40" y="95" width="48" height="2" fill="#3b82f6" opacity="0.6" rx="1"/>
  <rect x="42" y="98" width="44" height="2" fill="#06b6d4" opacity="0.6" rx="1"/>
  <rect x="44" y="101" width="40" height="2" fill="#10b981" opacity="0.6" rx="1"/>
</svg>
